<svg width="15847.100000000002" height="2946.1" xmlns="http://www.w3.org/2000/svg" xmlns:xlink="http://www.w3.org/1999/xlink">
 <title>{\displaystyle P\left(a\leq {\frac {X-np}{\sqrt {npq}}}\leq {b}\right)\to \int _{a}^{b}\varphi (x)dx}</title>
 <defs>
  <path d="m287,628q0,7 -57,9q-24,0 -31,1t-7,10q0,1 2,11q6,20 9,22t194,2q190,-1 203,-3q64,-11 107,-49t44,-101q0,-77 -66,-141q-69,-68 -178,-86q-7,-1 -105,-2l-95,0l-30,-119q-30,-116 -30,-123q0,-4 1,-5t7,-4t17,-2t33,-2l31,0q6,-9 6,-11q0,-16 -7,-30q-5,-5 -16,-5q-3,0 -37,1t-100,1q-62,0 -95,0t-36,-1q-18,0 -18,10q0,2 3,14q4,16 8,18t23,3q27,0 60,3q14,3 19,12q3,4 72,278t69,289zm358,-74q0,13 -2,21t-9,22t-25,22t-49,16q-7,1 -80,2q-17,0 -35,0t-29,-1t-12,0q-13,-1 -18,-9q-2,-6 -19,-77t-35,-138t-18,-68q0,-2 81,-2l12,0l23,0q112,0 160,50q27,27 41,79t14,83z" id="E1-MJMATHI-50"/>
  <path d="m94,250q0,69 10,131t23,107t37,88t38,67t42,52t33,34t25,21l13,0l4,0q14,0 14,-9q0,-3 -17,-21t-41,-53t-49,-86t-42,-138t-17,-193t17,-192t41,-139t49,-86t42,-53t17,-21q0,-9 -15,-9l-3,0l-13,0l-28,24q-94,85 -137,212t-43,264z" id="E1-MJMAIN-28"/>
  <path d="m33,157q0,101 76,192t171,92q51,0 90,-49q16,30 46,30q13,0 23,-8t10,-20q0,-13 -37,-160t-38,-166q0,-25 7,-33t21,-9q9,1 20,9q21,20 41,96q6,20 10,21q2,1 10,1l4,0q19,0 19,-9q0,-6 -5,-27t-20,-54t-32,-50q-13,-13 -32,-21q-8,-2 -24,-2q-34,0 -57,15t-30,31l-6,15q-1,1 -4,-1q-2,-2 -4,-4q-59,-56 -120,-56q-55,0 -97,40t-42,127zm318,171q0,6 -5,22t-23,35t-46,20q-35,0 -67,-31t-50,-81q-29,-79 -41,-164q0,-3 0,-11t-1,-12q0,-45 18,-62t43,-18q38,0 75,33t44,51q2,4 27,107t26,111z" id="E1-MJMATHI-61"/>
  <path d="m674,636q8,0 14,-6t6,-15t-7,-14q-1,-1 -270,-129l-266,-126l248,-118q288,-136 292,-141q3,-6 3,-11q0,-18 -18,-20l-6,0l-288,136q-290,137 -292,139q-7,5 -7,17q1,11 13,17q8,4 286,135t283,134q4,2 9,2zm-590,-754q0,10 15,20l579,0q16,-6 16,-20q0,-12 -15,-20l-581,0q-14,7 -14,20z" id="E1-MJMAIN-2264"/>
  <path d="m42,0l-2,0q-14,0 -14,11q0,4 3,16q4,14 7,16t19,3q86,3 135,52q10,10 116,126t105,118q-109,278 -114,283q-9,11 -63,12l-28,0q-6,6 -6,8t2,19q4,13 10,19l14,0q34,-2 121,-2q33,0 61,0t45,1t20,0q17,0 17,-11q0,-1 -2,-13q-4,-15 -7,-18t-16,-3q-31,-3 -54,-17l77,-194l53,59q105,113 105,125q0,18 -24,25q-5,0 -13,2q-15,0 -15,11q0,2 2,16q4,13 10,19l12,0q1,0 25,0t54,-2t41,-1q90,0 99,3l8,0q7,-7 7,-11q-2,-25 -12,-35l-16,0q-34,-1 -61,-9t-41,-17t-24,-18l-11,-9q0,1 -95,-104l-87,-96q0,-1 31,-80t65,-162t37,-86q10,-9 61,-10q35,0 35,-9q0,-2 -2,-14q-4,-16 -7,-19t-14,-3q-3,0 -33,0t-89,1q-61,0 -93,0t-35,-1q-17,0 -17,9q0,1 2,15q2,10 4,14t5,5t9,2t16,1t26,7q17,8 17,10q-1,0 -47,117l-47,118q-188,-204 -193,-215q-4,-8 -4,-12q0,-19 29,-25q1,0 6,0t6,-1q3,0 4,0t3,-1t3,-3t1,-7q0,-9 -2,-16q-3,-13 -6,-15t-15,-3q-3,0 -18,0t-42,1t-59,0q-78,0 -100,-2z" id="E1-MJMATHI-58"/>
  <path d="m84,237t0,13t14,20l581,0q15,-8 15,-20t-15,-20l-581,0q-14,7 -14,20l0,-13z" id="E1-MJMAIN-2212"/>
  <path d="m21,287q1,6 3,16t12,38t20,47t33,37t46,17q36,0 60,-18t30,-34t6,-21q0,-2 1,-2l11,11q61,64 139,64q54,0 87,-27t34,-79t-38,-157t-38,-127q0,-26 17,-26q6,0 9,1q29,5 52,38t35,80q2,8 20,8q20,0 20,-8q0,-1 -4,-15q-8,-29 -22,-57t-46,-56t-69,-27q-47,0 -68,27t-21,56q0,19 36,120t37,152q0,59 -44,59l-5,0q-86,0 -145,-101l-7,-12l-33,-134q-33,-131 -38,-141q-13,-27 -43,-27q-13,0 -21,6t-11,12t-2,10q0,13 38,163t40,163q1,5 1,23q0,39 -24,39q-38,0 -63,-100q-6,-20 -6,-21q-2,-6 -19,-6l-14,0q-6,6 -6,9z" id="E1-MJMATHI-6E"/>
  <path d="m23,287q1,3 2,8t5,22t10,31t15,33t20,30t26,22t33,9q75,0 96,-64l10,9q62,55 118,55q65,0 102,-47t37,-114q0,-108 -76,-199t-172,-92q-22,0 -39,6q-11,5 -23,15t-19,17l-7,8q-1,-1 -22,-87t-21,-87q0,-6 8,-7t37,-3l25,0q6,-7 6,-9t-3,-18q-3,-12 -6,-15t-13,-4q-2,0 -11,0t-34,1t-62,1q-70,0 -89,-2l-8,0q-7,7 -7,11q2,27 13,35l20,0q34,1 39,12q3,6 61,239t61,247q1,5 1,14q0,41 -25,41q-22,0 -37,-28t-23,-61t-12,-36q-2,-2 -16,-2l-14,0q-6,6 -6,9zm155,-185q22,-76 74,-76q30,0 58,23t46,58q18,34 36,108t19,110l0,6q0,74 -61,74q-11,0 -22,-3t-22,-9t-20,-13t-17,-15t-15,-15t-11,-14t-8,-10l-3,-4q0,-1 -3,-14t-11,-44t-14,-52q-26,-106 -26,-110z" id="E1-MJMATHI-70"/>
  <path d="m33,157q0,101 76,192t171,92q60,0 92,-52q1,1 5,6t11,11t16,12q34,24 46,24q4,0 7,-3t3,-5q0,-9 -69,-285q-71,-284 -71,-288q0,-8 45,-9l25,0q6,-8 6,-9t-3,-18q-4,-13 -10,-19l-13,0q-31,2 -108,2q-28,0 -51,0t-37,0t-17,-1q-14,0 -14,8q0,3 2,15q4,16 7,19t20,3q48,0 58,7q8,5 28,88t21,85q0,1 -7,-3q-48,-39 -100,-39q-55,0 -97,40t-42,127zm319,169q-23,79 -75,79q-35,0 -67,-31t-50,-81q-29,-79 -41,-164q0,-3 0,-11t-1,-12q0,-45 18,-62t43,-18q54,0 111,72l8,11l54,217z" id="E1-MJMATHI-71"/>
  <path d="m95,178q-6,0 -14,8t-9,14t31,30t66,50t38,29q2,2 5,2l1,0q6,0 14,-17t54,-117q19,-43 31,-69l85,-185q1,0 104,213t206,429t107,221q6,14 20,14q7,0 12,-6t7,-12l0,-6l-233,-483l-235,-486q-4,-7 -19,-7q-9,0 -12,3q-2,2 -98,212l-96,210l-16,-11q-15,-12 -31,-24t-18,-12z" id="E1-MJMAIN-221A"/>
  <path d="m73,647q0,10 4,23t12,13q1,0 72,5t73,6q12,0 12,-9t-34,-143q-8,-34 -17,-70t-15,-54l-4,-19q0,-3 6,3q49,40 101,40q62,0 100,-46t39,-116q0,-111 -79,-201t-170,-90q-50,0 -91,38t-42,123l0,9q0,21 8,58t49,197q50,197 50,209t-38,14q-5,0 -8,0l-5,0q-10,0 -13,0t-7,3t-3,7zm263,-322l0,6q0,74 -61,74q-17,0 -35,-8t-33,-21t-26,-24t-18,-22l-6,-8l-21,-86q-22,-86 -22,-122q0,-48 24,-72q16,-16 40,-16q33,0 67,32q25,23 40,56t33,105q18,72 18,106z" id="E1-MJMATHI-62"/>
  <path d="m60,749l4,1q5,0 10,0l12,0l28,-24q94,-85 137,-212t43,-264q0,-68 -10,-131t-23,-107t-37,-88t-38,-67t-41,-51t-32,-33t-23,-19q-3,-3 -4,-4l-12,0q-8,0 -11,0t-5,3t-3,9q1,1 11,13q155,161 155,475t-155,475q-10,12 -11,13q0,8 5,11z" id="E1-MJMAIN-29"/>
  <path d="m701,-940q0,-3 -6,-9l-31,0q-2,2 -28,27t-45,43t-54,61t-62,81t-63,101t-62,125t-55,149t-45,176t-29,203t-12,234q0,711 364,1110q23,25 43,44t33,32t15,13l31,0q6,-6 6,-9q0,-5 -20,-26t-52,-59t-72,-95t-81,-143t-76,-191t-60,-252t-32,-316q-2,-38 -2,-109q0,-389 94,-680t290,-494q11,-12 11,-16z" id="E1-MJSZ3-28"/>
  <path d="m34,1438q0,8 3,10t13,2l6,0l15,0q2,-2 28,-27t45,-43t54,-61t62,-81t63,-101t62,-124t55,-149t45,-176t29,-203t12,-234q0,-117 -7,-198q-47,-572 -357,-913q-23,-25 -43,-44t-33,-32t-15,-13l-15,0q-13,0 -17,2t-5,10q54,54 106,124q288,383 288,1064q0,202 -26,377t-64,294t-93,224t-100,163t-99,116q-2,2 -4,4t-3,4t-3,3l-2,2z" id="E1-MJSZ3-29"/>
  <path d="m56,237t0,13t14,20l765,0q-116,87 -143,223q0,1 0,3t-1,3q0,12 17,12l3,0q9,0 12,-1t6,-4t3,-9t3,-16t8,-25q22,-67 73,-120t119,-75q9,-3 9,-11q0,-6 -5,-9t-24,-10t-38,-19q-41,-26 -71,-60t-45,-67t-21,-50t-8,-31q-2,-10 -5,-12t-16,-3q-20,0 -20,11q0,7 5,25q32,126 139,205l-765,0q-14,7 -14,20l0,-13z" id="E1-MJMAIN-2192"/>
  <path d="m114,-798q18,-26 51,-26l2,0q28,0 56,60t52,164t45,209t42,227q3,21 5,31q72,425 156,788t122,472q6,18 10,30t17,44t27,56t34,49t44,40t51,14q56,0 84,-35t32,-80q0,-25 -12,-40t-23,-19t-22,-3q-21,0 -38,15t-17,41q0,48 53,57l-3,4q-3,3 -8,7t-8,6q-15,10 -33,10q-14,0 -26,-12t-32,-56t-39,-116t-47,-203t-56,-308q-59,-335 -123,-633t-100,-432t-55,-192q-77,-233 -190,-233q-40,0 -73,31t-37,85q0,35 19,48t38,13q21,0 38,-15t17,-41q0,-48 -53,-57z" id="E1-MJSZ2-222B"/>
  <path d="m92,210q0,-34 14,-61t36,-41t43,-23t35,-13l15,-2l2,1l13,41q18,58 33,99t39,88t48,76t59,48t73,19q45,0 80,-32t36,-108q0,-78 -43,-150t-118,-117t-158,-45q-26,0 -26,-2l-7,-36q-6,-35 -14,-77t-11,-54q-5,-24 -26,-33q-11,-6 -25,-6q-31,3 -31,33q0,10 55,183l-5,2q-5,2 -14,5t-22,9t-26,14t-27,18t-26,25t-23,32t-15,39t-6,48q0,48 26,121t73,120l13,0q21,0 21,-8q0,-6 -8,-14q-41,-48 -61,-109t-22,-90zm482,68q0,42 -24,66t-64,25q-49,0 -92,-40t-71,-111q-14,-34 -28,-109l-9,-45q18,-2 20,-2q117,0 192,69t76,147z" id="E1-MJMATHI-3C6"/>
  <path d="m52,289q7,42 54,97t116,56q35,0 64,-18t43,-45q42,63 101,63q37,0 64,-22t28,-59q0,-29 -14,-47t-27,-22t-23,-4q-19,0 -31,11t-12,29q0,46 50,63q-11,13 -40,13q-13,0 -19,-2q-38,-16 -56,-66q-60,-221 -60,-258q0,-28 16,-40t35,-12q37,0 73,33t49,81q3,10 6,11t16,2l4,0q15,0 15,-8q0,-1 -2,-11q-16,-57 -62,-101t-107,-44q-70,0 -106,63q-41,-62 -94,-62l-6,0q-49,0 -70,26t-22,55q0,32 19,52t45,20q43,0 43,-42q0,-20 -12,-35t-23,-20t-13,-5l-3,-1q0,-1 6,-4t16,-7t19,-3q36,0 62,45q9,16 23,68t28,108t16,66q5,27 5,39q0,28 -15,40t-34,12q-40,0 -75,-32t-49,-82q-2,-9 -5,-10t-16,-2l-14,0q-6,6 -6,11z" id="E1-MJMATHI-78"/>
  <path d="m366,683q1,0 72,5t73,6q12,0 12,-8q0,-7 -73,-302t-75,-301t-1,-15q0,-42 28,-42q9,1 20,9q21,20 41,96q6,20 10,21q2,1 10,1l4,0l4,0q15,0 15,-8q0,-5 -3,-16q-13,-50 -30,-81t-28,-40t-28,-16q-8,-2 -24,-2q-34,0 -57,15t-30,31l-6,15q-1,1 -4,-1q-2,-2 -4,-4q-59,-56 -120,-56q-55,0 -97,40t-42,127q0,48 20,98t48,86q47,57 94,79t85,22q56,0 84,-42q5,-6 5,-4q1,4 27,109t28,111q0,13 -7,16t-39,5l-21,0q-6,6 -6,8t2,19q5,19 13,19zm-14,-357q-23,79 -75,79q-35,0 -67,-31t-50,-81q-29,-79 -41,-164q0,-3 0,-11t-1,-12q0,-45 18,-62t43,-18q54,0 111,72l8,11l54,217z" id="E1-MJMATHI-64"/>
 </defs>
 <g>
  <title>background</title>
  <rect fill="none" id="canvas_background" height="402" width="582" y="-1" x="-1"/>
 </g>
 <g>
  <title>Layer 1</title>
  <g id="svg_1" transform="matrix(1,0,0,-1,0,0) " stroke-width="0" fill="currentColor" stroke="currentColor">
   <use fill="#DDDDDD" id="svg_2" y="-1721.769165" x="9.050491" xlink:href="#E1-MJMATHI-50"/>
   <g id="svg_3">
    <use fill="#DDDDDD" id="svg_4" x="927.050491" y="-1721.769165" xlink:href="#E1-MJSZ3-28"/>
    <g id="svg_5">
     <use fill="#DDDDDD" id="svg_6" y="-1721.769165" x="1663.050491" xlink:href="#E1-MJMATHI-61"/>
     <use fill="#DDDDDD" id="svg_7" y="-1721.769165" x="2470.050491" xlink:href="#E1-MJMAIN-2264"/>
     <g id="svg_8">
      <g id="svg_9">
       <rect fill="#DDDDDD" id="svg_10" y="-1501.769165" x="3646.050491" height="60" width="3299"/>
       <g id="svg_11">
        <use fill="#DDDDDD" id="svg_12" y="-1007.769165" x="3706.050491" xlink:href="#E1-MJMATHI-58"/>
        <use fill="#DDDDDD" id="svg_13" y="-1007.769165" x="4780.050491" xlink:href="#E1-MJMAIN-2212"/>
        <use fill="#DDDDDD" id="svg_14" y="-1007.769165" x="5781.050491" xlink:href="#E1-MJMATHI-6E"/>
        <use fill="#DDDDDD" id="svg_15" y="-1007.769165" x="6381.050491" xlink:href="#E1-MJMATHI-70"/>
       </g>
       <g id="svg_16">
        <use fill="#DDDDDD" id="svg_17" y="-2603.769165" x="4096.050491" xlink:href="#E1-MJMAIN-221A"/>
        <rect fill="#DDDDDD" id="svg_18" y="-1862.769165" x="4929.050491" height="60" width="1564"/>
        <g id="svg_19">
         <use fill="#DDDDDD" id="svg_20" y="-2433.769165" x="4929.050491" xlink:href="#E1-MJMATHI-6E"/>
         <use fill="#DDDDDD" id="svg_21" y="-2433.769165" x="5529.050491" xlink:href="#E1-MJMATHI-70"/>
         <use fill="#DDDDDD" id="svg_22" y="-2433.769165" x="6033.050491" xlink:href="#E1-MJMATHI-71"/>
        </g>
       </g>
      </g>
     </g>
     <use fill="#DDDDDD" id="svg_23" y="-1721.769165" x="7343.050491" xlink:href="#E1-MJMAIN-2264"/>
     <use fill="#DDDDDD" id="svg_24" y="-1721.769165" x="8400.050491" xlink:href="#E1-MJMATHI-62"/>
    </g>
    <use fill="#DDDDDD" id="svg_25" y="-1722.769165" x="8830.050491" xlink:href="#E1-MJSZ3-29"/>
   </g>
   <use fill="#DDDDDD" id="svg_26" y="-1721.769165" x="9844.050491" xlink:href="#E1-MJMAIN-2192"/>
   <g id="svg_27">
    <use fill="#DDDDDD" id="svg_28" y="-1721.769165" x="11122.050491" xlink:href="#E1-MJSZ2-222B"/>
    <use fill="#DDDDDD" id="svg_29" y="-895.317006" x="1512.80126" xlink:href="#E1-MJMATHI-62" transform="translate(11113,0) scale(0.7070000171661377) "/>
    <use fill="#DDDDDD" id="svg_30" y="-3705.317006" x="799.80126" xlink:href="#E1-MJMATHI-61" transform="translate(11113,0) scale(0.7070000171661377) "/>
   </g>
   <use fill="#DDDDDD" id="svg_31" y="-1721.769165" x="12754.050491" xlink:href="#E1-MJMATHI-3C6"/>
   <use fill="#DDDDDD" id="svg_32" y="-1721.769165" x="13408.050491" xlink:href="#E1-MJMAIN-28"/>
   <use fill="#DDDDDD" id="svg_33" y="-1721.769165" x="13798.050491" xlink:href="#E1-MJMATHI-78"/>
   <use fill="#DDDDDD" id="svg_34" y="-1721.769165" x="14370.050491" xlink:href="#E1-MJMAIN-29"/>
   <use fill="#DDDDDD" id="svg_35" y="-1721.769165" x="14760.050491" xlink:href="#E1-MJMATHI-64"/>
   <use fill="#DDDDDD" id="svg_36" y="-1721.769165" x="15283.050491" xlink:href="#E1-MJMATHI-78"/>
  </g>
 </g>
</svg>