<svg version="1.1" xmlns="http://www.w3.org/2000/svg" fill-rule="evenodd" clip-rule="evenodd" height="32" width="32" viewBox="0 0 1024 1024" style="width: 32px; height: 32px;"><path d="M512.023536 959.850981c-79.856769 0-153.156192-26.726711-200.350051-66.646909-23.966854 7.161097-54.624085 18.684548-73.971735 32.970925-16.554024 12.222369-14.490016 24.686239-11.506055 29.717836 13.099343 22.101367 224.729298 14.110369 285.826818 7.228635v-3.270487zM512.023536 959.850981c79.855746 0 153.156192-26.726711 200.350051-66.646909 23.966854 7.161097 54.624085 18.684548 73.971735 32.970925 16.554024 12.222369 14.487969 24.686239 11.506055 29.717836-13.099343 22.101367-224.729298 14.110369-285.826818 7.228635v-3.270487z" fill="#FAAD08"></path><path d="M512.487094 481.250672c131.8704-0.896416 237.556441-26.41665 273.366018-36.20969 8.53642-2.335185 13.103436-6.520507 13.103435-6.520507 0.029676-1.200338 0.544399-21.466917 0.544399-31.921013 0-176.059831-83.114976-352.965937-287.501969-352.977194-204.38597 0.011256-287.50197 176.918385-287.50197 352.977194 0 10.454096 0.514723 30.720675 0.546446 31.921013 0 0 3.715625 3.91517 10.52368 5.810333 33.063023 9.199523 140.735301 36.002982 275.948843 36.919864h0.971118zM870.836645 627.921149c-8.175193-26.308179-19.334347-56.986899-30.632671-86.448907 0 0-6.500041-0.802272-9.785877 0.150426-101.391225 29.450752-224.282113 48.223305-317.932027 47.090504h-0.969071c-93.125981 1.121544-215.183897-17.435091-316.235384-46.598294-3.861958-1.11438-11.485589-0.642636-11.485589-0.642636-11.299347 29.462009-22.456455 60.139705-30.630624 86.448907-38.980803 125.44506-26.351158 177.358407-16.736173 178.52293 20.635993 2.494821 80.32135-94.434789 80.32135-94.434789 0 98.493222 88.923262 249.723551 292.547893 251.115248 0.907673-0.007163 4.495384-0.007163 5.403056 0 203.626677-1.391696 292.547893-152.621003 292.547893-251.115248 0 0 59.686381 96.92961 80.323397 94.434789 9.614985-1.164522 22.24156-53.077869-16.736173-178.52293"></path><path d="M439.271582 313.727261c-27.722388 1.249457-51.417043-30.333866-52.902884-70.485331-1.508353-40.179095 19.732413-73.760934 47.460942-75.017554 27.697829-1.234107 51.374064 30.335912 52.880371 70.50375 1.517563 40.178071-19.727297 73.753771-47.438429 74.999135M637.630279 243.240907c-1.485841 40.151465-25.180496 71.733765-52.902884 70.486354-27.711132-1.24741-48.955992-34.82004-47.438429-74.999135 1.503237-40.169885 25.180496-71.739904 52.878325-70.50375 27.731598 1.25662 48.971341 34.83846 47.462988 75.016531" fill="#FFFFFF"></path><path d="M686.904519 370.433774c-7.410783-16.414855-82.029248-34.701336-174.410262-34.701337H511.503696c-92.37999 0-167.001525 18.286482-174.409238 34.701337a5.439896 5.439896 0 0 0-0.541329 2.335185c0 1.181919 0.398066 2.25025 1.01819 3.155876 6.244214 9.103332 89.105411 54.082756 173.933401 54.082756h0.991584c84.827991 0 167.689187-44.977377 173.933401-54.080709 0.620124-0.903579 1.016143-1.982144 1.016143-3.165086a5.423523 5.423523 0 0 0-0.541329-2.328022" fill="#FAAD08"></path><path d="M473.352795 243.826238c1.269923 15.864316-7.43125 29.958312-19.405979 31.498388-11.993149 1.542122-22.732747-10.069333-24.00881-25.941836-1.251503-15.872502 7.435343-29.965475 19.390629-31.494294 12.012591-1.546216 22.77061 10.073426 24.02416 25.937742M549.532825 249.131057c2.445702-4.389984 19.138896-27.474748 53.688783-19.069311 9.075703 2.207271 13.274328 5.455245 14.160511 6.734378 1.307785 1.888 1.665942 4.574179 0.339738 8.19259-2.62785 7.170307-8.048303 6.974855-11.055801 5.571902-1.939165-0.905626-26.00528-16.940834-48.171116 6.986111-1.52575 1.647523-4.254907 2.211365-6.839778 0.258897-2.586918-1.956561-3.65525-5.92085-2.122337-8.674567"></path><path d="M512.485047 582.943772h-0.969071c-63.688531 0.766456-140.913357-7.670703-215.694527-22.408359-6.40385 37.07029-10.269901 83.661422-6.949272 139.226948 8.385994 140.445706 91.793636 228.721215 220.535788 230.007511h5.233188c128.742153-1.285273 212.149794-89.561805 220.535789-230.007511 3.321652-55.570643-0.546446-102.163821-6.952342-139.234111-74.795497 14.743796-152.032602 23.186072-215.739553 22.415522" fill="#FFFFFF"></path><path d="M331.067184 571.195194V709.399859s63.318094 12.772908 126.750799 3.931542v-127.483486c-40.185234-2.27481-83.526345-7.343245-126.750799-14.652721" fill="#EB1C26"></path><path d="M798.956547 438.520475s-123.152854 38.877449-286.470477 39.98569h-0.971117c-163.05054-1.103124-286.051945-39.85266-286.472524-39.98569l-41.246403 102.95279c103.168708 31.102369 231.036957 51.148937 327.718927 49.985438l0.969071-0.002047c96.686063 1.170662 224.538963-18.875906 327.718926-49.982368L798.956547 438.520475z" fill="#EB1C26"></path></svg>